<?xml version="1.0" standalone="no"?>
<!DOCTYPE svg PUBLIC "-//W3C//DTD SVG 20010904//EN"
 "http://www.w3.org/TR/2001/REC-SVG-20010904/DTD/svg10.dtd">
<svg version="1.0" xmlns="http://www.w3.org/2000/svg"
 width="1173.000000pt" height="1280.000000pt" viewBox="0 0 1173.000000 1280.000000"
 preserveAspectRatio="xMidYMid meet">
<metadata>
Created by potrace 1.15, written by Peter Selinger 2001-2017
</metadata>
<g transform="translate(0.000000,1280.000000) scale(0.100000,-0.100000)"
fill="#000000" stroke="none">
<path d="M5664 12785 c-106 -23 -178 -74 -218 -152 -36 -72 -11 -163 51 -190
67 -27 126 0 139 64 5 26 1 37 -19 57 -31 31 -56 33 -88 8 -34 -28 -20 -53 25
-45 31 5 36 3 36 -14 0 -26 -19 -43 -48 -43 -37 0 -62 19 -78 57 -14 33 -14
38 8 81 58 115 307 166 508 103 110 -35 146 -86 116 -166 -20 -52 -37 -68 -68
-63 -37 5 -30 41 10 53 49 14 36 55 -19 55 -31 0 -69 -40 -69 -72 0 -28 54
-78 83 -78 36 0 83 43 103 96 14 37 15 51 6 82 -40 132 -270 212 -478 167z"/>
<path d="M5655 12397 c-21 -18 -25 -28 -20 -50 10 -37 35 -35 35 2 0 40 32 51
69 24 85 -64 -11 -156 -205 -199 -105 -23 -400 -22 -629 1 -281 29 -580 9
-687 -46 -21 -11 -38 -15 -38 -10 0 45 69 101 156 127 181 52 364 46 718 -26
188 -38 264 -44 371 -31 165 20 288 64 312 112 15 30 2 36 -31 14 -29 -20
-210 -40 -272 -30 -24 3 -53 15 -66 25 l-23 19 22 22 c21 22 25 22 73 10 60
-15 73 -10 35 15 -39 25 -122 25 -141 0 -20 -28 -17 -59 6 -89 28 -35 78 -47
169 -42 51 3 68 2 51 -4 -14 -5 -61 -9 -106 -10 -88 -1 -163 19 -241 64 -34
21 -43 31 -43 54 0 20 -7 31 -25 39 -40 18 -52 15 -58 -18 -9 -40 0 -59 31
-67 15 -3 67 -26 117 -50 68 -33 81 -42 55 -39 -19 3 -62 8 -95 11 -33 4 -150
24 -260 46 -248 50 -415 61 -545 35 -154 -30 -232 -87 -247 -179 -4 -30 -13
-44 -37 -58 -17 -10 -44 -39 -60 -64 l-29 -46 -18 30 c-38 63 -93 75 -154 35
-29 -19 -36 -61 -7 -49 70 29 73 30 100 14 62 -34 65 -109 8 -175 l-33 -38
-84 38 c-46 22 -153 61 -238 89 l-155 50 32 28 c44 39 111 40 166 3 31 -21 40
-24 47 -13 13 21 6 32 -34 52 -57 28 -136 25 -191 -7 -25 -14 -49 -34 -54 -43
-9 -14 -17 -15 -80 -5 -99 17 -259 15 -349 -4 -87 -18 -157 -47 -266 -111 -78
-45 -79 -46 -112 -30 -172 82 -385 1 -385 -148 0 -95 78 -169 208 -198 51 -12
57 -16 60 -41 5 -45 -13 -56 -88 -56 -46 0 -71 5 -79 14 -6 8 -31 17 -56 20
-24 4 -49 14 -56 22 -8 9 -21 13 -35 10 -16 -4 -23 -1 -27 14 -3 12 -14 20
-25 20 -12 0 -24 5 -27 10 -3 6 -13 10 -21 10 -8 0 -33 14 -56 30 -22 17 -49
30 -60 30 -10 0 -35 7 -55 15 -28 12 -33 18 -24 29 14 17 87 36 136 36 22 0
57 -11 86 -27 34 -20 51 -25 59 -17 21 21 -3 43 -67 65 -83 27 -145 21 -227
-21 -57 -30 -60 -31 -127 -21 -253 40 -414 -41 -451 -224 -8 -45 -21 -71 -49
-103 -55 -63 -81 -126 -87 -208 -6 -90 12 -130 63 -140 61 -11 115 11 115 47
0 25 -24 24 -60 -2 -35 -26 -77 -20 -85 14 -8 32 22 154 52 210 40 72 48 75
73 28 51 -101 199 -147 302 -95 15 8 32 23 38 34 9 17 8 20 -12 20 -13 -1 -34
-7 -48 -15 -61 -35 -177 -2 -234 65 -50 59 -31 82 103 126 71 24 88 26 164 19
l85 -7 4 -56 c5 -78 39 -143 113 -218 70 -72 118 -96 237 -120 142 -29 287 -3
437 77 l74 40 46 -49 c25 -27 69 -64 96 -82 28 -19 52 -37 53 -42 2 -4 32 -8
67 -8 60 0 65 2 94 35 38 44 44 107 11 125 -27 15 -43 4 -30 -20 16 -30 12
-57 -13 -86 -20 -23 -28 -26 -59 -20 -45 8 -111 52 -178 118 l-53 52 72 66
c51 48 70 72 65 84 -3 9 -10 16 -14 16 -4 0 -36 -28 -70 -61 l-64 -61 -18 22
c-26 32 -22 43 20 62 59 27 109 74 95 88 -9 10 -25 4 -70 -24 -69 -43 -81 -44
-89 -12 -8 34 -2 41 57 60 63 21 99 44 99 62 0 22 -41 16 -85 -11 -48 -30 -72
-32 -80 -6 -10 33 4 46 86 74 44 16 92 39 107 52 25 21 25 24 9 31 -12 4 -36
-2 -63 -16 -60 -30 -124 -38 -124 -17 0 44 18 64 65 70 61 9 84 22 100 60 11
27 11 37 -3 70 -15 39 -15 40 9 58 34 26 195 86 292 109 61 15 115 20 212 19
167 -1 180 -5 180 -49 l0 -35 -145 -6 c-110 -5 -159 -11 -203 -27 -189 -69
-281 -179 -295 -355 -8 -113 41 -197 116 -197 57 0 82 48 44 83 -27 24 -40 21
-61 -14 l-19 -31 -19 28 c-28 44 -26 194 5 252 87 164 292 253 527 227 59 -6
71 -11 115 -50 93 -82 242 -104 388 -56 l72 24 40 -27 c47 -31 50 -31 50 -8 0
10 -14 29 -31 41 l-31 23 32 32 c18 17 34 27 36 21 33 -86 82 -125 156 -125
65 0 116 22 128 56 17 45 -13 104 -53 104 -14 0 -17 -4 -12 -17 29 -71 29 -71
10 -92 -24 -28 -89 -28 -133 -1 -83 51 -83 201 0 288 18 17 35 32 39 32 4 0
21 -13 37 -30 38 -37 74 -39 109 -4 33 33 18 54 -20 29 -30 -19 -62 -13 -77
15 -13 24 0 31 90 56 82 22 211 23 575 5 305 -14 422 -11 620 18 155 23 229
49 286 100 l43 38 40 -42 c47 -48 119 -79 236 -101 118 -23 443 -29 754 -14
307 15 428 8 530 -30 50 -19 55 -24 46 -41 -13 -23 -42 -24 -76 -3 -37 25 -54
3 -18 -25 33 -26 64 -27 97 -1 35 28 61 25 92 -11 81 -97 87 -199 13 -265 -12
-12 -33 -25 -46 -29 -28 -8 -84 10 -107 35 -17 19 -16 21 14 56 23 26 29 40
22 47 -8 8 -19 5 -38 -10 -40 -29 -44 -93 -9 -128 21 -20 35 -25 79 -25 68 0
124 37 156 104 l23 46 24 -29 c31 -37 30 -43 -6 -69 -16 -13 -30 -27 -30 -32
0 -17 30 -11 57 10 33 25 41 25 136 -5 95 -31 164 -32 253 -4 58 18 77 30 125
80 l57 59 113 0 c63 0 146 -7 184 -15 202 -43 326 -177 329 -355 1 -67 -22
-128 -53 -138 -8 -3 -11 0 -7 7 13 20 -4 51 -28 51 -29 0 -46 -18 -46 -50 0
-35 17 -50 56 -50 114 0 150 183 69 347 -79 160 -255 242 -522 243 l-103 0 0
30 c0 26 4 30 38 36 20 4 107 7 192 7 124 0 171 -5 235 -22 83 -21 252 -101
248 -117 -1 -5 -7 -23 -14 -40 -27 -68 24 -124 112 -124 39 0 47 -4 57 -25 7
-14 12 -33 12 -42 0 -16 -8 -16 -137 3 -29 4 -43 3 -43 -4 0 -18 40 -35 120
-52 l75 -15 0 -40 c0 -40 0 -40 -35 -37 -19 2 -57 12 -85 23 -29 11 -53 15
-58 10 -17 -17 3 -29 88 -52 l85 -24 0 -39 c0 -38 0 -39 -34 -33 -19 3 -51 17
-72 31 -36 24 -67 26 -58 2 3 -7 34 -28 70 -46 67 -33 76 -49 50 -85 -14 -19
-17 -18 -75 28 -34 26 -68 47 -76 47 -33 0 -11 -31 55 -79 64 -47 69 -53 59
-73 -22 -41 -95 -111 -134 -129 -80 -37 -144 -19 -165 47 -15 45 -35 39 -34
-10 2 -63 30 -81 122 -81 67 1 85 5 125 28 26 15 66 52 88 82 23 30 43 55 46
55 2 0 41 -18 86 -39 108 -51 171 -65 292 -65 269 2 444 125 477 337 l11 75
38 6 c82 13 270 -24 299 -59 19 -22 -5 -78 -50 -119 -51 -46 -107 -63 -159
-48 -47 15 -91 15 -91 2 0 -21 66 -44 125 -44 83 -1 148 32 186 92 16 25 29
54 29 64 0 30 17 21 50 -27 52 -75 70 -124 70 -192 0 -81 -22 -108 -80 -99
-42 6 -55 -1 -39 -21 7 -7 31 -13 58 -13 40 0 52 5 77 31 26 28 29 36 27 95
-3 98 -26 154 -94 229 -32 36 -59 71 -59 78 0 8 -7 37 -16 66 -20 69 -86 141
-157 171 -64 28 -212 39 -282 21 -45 -11 -49 -11 -98 21 -43 28 -62 33 -122
36 -84 4 -149 -8 -153 -29 -2 -13 14 -15 100 -14 80 0 112 -4 143 -18 l40 -19
-35 -15 c-19 -8 -49 -22 -67 -30 -17 -8 -36 -12 -42 -8 -6 3 -14 -1 -17 -9 -3
-9 -17 -16 -30 -16 -14 0 -27 -7 -31 -16 -3 -8 -12 -13 -21 -9 -8 3 -21 0 -29
-7 -8 -7 -20 -13 -27 -14 -24 -4 -104 -45 -115 -58 -7 -8 -19 -12 -27 -9 -8 3
-22 -2 -32 -10 -11 -10 -42 -17 -87 -19 l-70 -3 -3 42 -3 42 61 12 c71 14 128
51 167 110 22 33 27 53 28 100 0 71 -21 104 -90 139 -71 35 -193 34 -283 -3
l-63 -26 -79 54 c-142 96 -315 130 -526 101 -65 -9 -131 -19 -145 -22 -19 -4
-35 2 -67 29 -46 39 -107 53 -160 38 -43 -13 -62 -29 -62 -52 0 -19 1 -19 40
1 21 11 56 20 77 20 36 0 103 -31 103 -47 0 -5 -39 -19 -88 -32 -48 -13 -145
-50 -217 -83 -71 -33 -135 -62 -142 -64 -6 -3 -25 13 -42 37 -73 101 -15 200
93 159 39 -14 42 6 6 41 -27 28 -36 31 -71 26 -52 -7 -86 -39 -97 -91 l-9 -41
-15 36 c-9 20 -38 55 -66 78 -28 24 -48 49 -46 56 8 19 -51 130 -81 153 -60
48 -116 57 -340 57 -216 0 -259 -5 -442 -51 -98 -24 -312 -59 -319 -51 -3 2
27 14 66 27 39 12 73 27 76 32 3 4 28 20 55 33 44 23 49 29 49 59 0 37 -12 46
-49 37 -18 -5 -27 -17 -35 -46 -10 -34 -19 -43 -66 -67 -109 -55 -271 -72
-350 -38 -20 8 -14 9 35 5 82 -7 173 9 202 36 44 42 19 110 -47 124 -38 8 -97
-11 -111 -37 -15 -28 -6 -32 31 -13 18 9 48 15 73 13 37 -3 42 -6 45 -30 5
-41 -34 -61 -132 -66 -63 -3 -99 1 -157 17 -95 27 -103 27 -89 1 13 -25 139
-85 208 -99 108 -22 271 -14 527 28 290 47 410 57 531 42 117 -14 185 -35 225
-68 31 -26 66 -90 55 -101 -3 -2 -32 7 -63 21 -140 62 -434 81 -718 48 -252
-30 -376 -36 -465 -22 -188 29 -290 70 -317 125 -20 42 -11 80 23 103 32 21
76 8 84 -25 7 -32 24 -32 28 -1 4 32 -37 69 -77 69 -30 0 -91 -34 -91 -52 0
-6 -10 -2 -22 9 -54 49 -102 56 -143 20z m2533 -484 c4 -28 -13 -36 -125 -63
-84 -20 -137 -49 -120 -67 4 -3 49 9 102 26 103 35 150 39 104 8 -62 -41 -141
-61 -249 -61 -58 -1 -118 3 -135 7 -29 8 -29 9 -10 24 51 39 368 155 410 150
12 -1 21 -11 23 -24z m-4598 -44 c106 -35 270 -108 270 -120 0 -14 -86 -21
-192 -17 -78 3 -115 9 -152 26 -27 12 -47 24 -45 27 3 2 29 -2 59 -10 63 -17
110 -19 110 -6 0 11 -39 24 -120 41 -84 18 -89 20 -99 39 -6 10 -7 28 -4 40 5
20 10 22 42 17 20 -3 79 -20 131 -37z m5706 -19 c73 -46 95 -124 49 -178 -27
-33 -101 -68 -162 -78 -39 -6 -40 -5 -56 32 -14 35 -14 40 0 49 87 56 106 76
87 95 -7 7 -24 0 -57 -25 -25 -19 -50 -35 -56 -35 -5 0 -30 26 -55 57 -54 68
-51 75 39 97 79 20 164 14 211 -14z m-6754 -51 c29 -6 55 -13 57 -15 5 -5 -73
-124 -82 -124 -4 0 -25 12 -47 26 -36 24 -60 26 -60 4 0 -5 21 -23 46 -41 43
-30 46 -34 40 -67 -8 -51 -16 -55 -82 -42 -118 24 -175 79 -160 152 20 100
129 140 288 107z m6487 -64 c30 -42 31 -45 11 -45 -28 0 -77 26 -88 47 -6 10
-6 27 0 45 9 27 12 28 27 13 10 -8 32 -35 50 -60z m-6369 -24 c0 -34 -30 -61
-67 -61 -30 0 -29 4 8 51 37 47 59 51 59 10z m7446 -66 c91 -27 151 -88 178
-181 6 -21 5 -21 -74 7 -68 24 -98 29 -178 29 l-97 1 -36 74 c-30 63 -34 75
-20 78 39 11 182 6 227 -8z m-244 -81 c17 -36 27 -69 22 -73 -5 -5 -40 -19
-79 -31 -38 -13 -122 -49 -185 -80 -150 -75 -202 -90 -316 -90 -107 0 -154 8
-161 26 -3 8 -2 30 2 50 l6 37 58 -6 c42 -5 63 -2 79 8 15 11 27 13 45 6 19
-8 29 -6 38 5 7 8 18 13 25 10 7 -3 16 -1 19 4 4 6 14 10 25 10 10 0 20 7 24
15 3 8 14 15 25 15 11 0 23 5 26 10 3 6 15 10 26 10 11 0 22 7 25 15 4 8 17
15 30 15 14 0 27 7 31 16 3 8 12 13 20 10 7 -3 21 3 30 13 9 11 21 17 28 15 7
-3 26 9 43 25 18 19 41 31 57 31 22 0 30 -9 57 -66z m-8095 12 c2 -2 -12 -34
-29 -73 l-32 -71 -92 5 c-76 5 -103 2 -165 -17 -41 -12 -87 -29 -102 -37 l-29
-15 7 34 c4 18 12 40 18 48 74 102 180 144 337 134 47 -3 86 -7 87 -8z m140
-67 c23 -16 48 -29 57 -29 8 0 18 -4 21 -10 3 -5 15 -10 26 -10 11 0 22 -7 25
-15 4 -8 12 -15 19 -15 7 0 18 -7 25 -15 7 -8 23 -15 35 -15 13 0 26 -7 29
-16 4 -10 13 -13 25 -9 10 3 24 -1 31 -10 9 -10 31 -15 71 -15 33 0 68 -5 78
-12 14 -8 30 -8 66 1 33 8 51 9 60 1 18 -15 28 -72 14 -81 -7 -4 -56 -13 -110
-20 -125 -16 -170 -7 -331 64 -68 30 -161 67 -208 82 -47 15 -89 31 -94 36 -9
8 48 118 67 131 12 7 33 -2 94 -43z m7993 -102 c0 -94 -78 -207 -171 -246
-108 -47 -242 -62 -363 -40 -34 5 -87 14 -119 20 -47 8 -142 41 -154 53 -2 2
4 20 13 41 15 36 17 37 52 31 203 -36 388 0 615 118 59 31 111 56 117 56 5 0
10 -15 10 -33z m-8000 -110 c192 -92 336 -119 487 -93 50 9 97 18 106 22 18 7
52 -49 43 -71 -23 -61 -331 -122 -484 -95 -183 31 -285 121 -308 268 l-7 43
34 -14 c19 -8 77 -35 129 -60z"/>
<path d="M1670 11066 c-71 -16 -126 -45 -169 -90 -23 -23 -44 -36 -61 -36
-100 0 -210 -79 -244 -175 -24 -68 -31 -185 -17 -275 12 -74 12 -74 -21 -138
-42 -84 -47 -156 -16 -232 17 -41 29 -56 46 -58 29 -4 28 9 -4 64 -24 41 -26
52 -21 109 4 36 13 79 22 96 16 29 17 30 29 13 7 -11 16 -37 20 -59 5 -22 21
-59 37 -83 16 -24 29 -49 29 -57 0 -8 5 -17 10 -20 6 -3 10 -15 10 -27 0 -12
8 -22 20 -25 15 -4 19 -11 14 -25 -3 -10 0 -26 7 -34 14 -17 16 -23 26 -74 3
-16 11 -35 19 -41 9 -8 14 -34 14 -80 0 -59 -3 -70 -21 -79 -37 -20 -66 -5
-73 37 -17 106 -65 181 -133 210 -133 55 -249 -50 -247 -222 1 -46 9 -89 23
-127 l22 -58 -49 -82 c-62 -102 -90 -171 -108 -266 -17 -88 -18 -251 -3 -338
l11 -64 -35 -41 c-42 -49 -58 -109 -46 -174 12 -64 26 -85 54 -85 31 0 31 6 0
52 -32 47 -33 107 -4 154 11 19 24 34 29 34 4 0 30 -69 58 -152 27 -84 66
-188 86 -231 21 -43 35 -85 32 -92 -3 -8 -23 -26 -45 -41 -98 -64 -202 -2
-157 94 14 28 15 37 4 43 -15 10 -35 -6 -54 -42 -28 -54 -11 -103 48 -139 l29
-17 -45 -27 c-24 -14 -54 -41 -65 -60 -17 -27 -29 -34 -61 -39 -178 -24 -236
-327 -147 -762 31 -150 46 -238 62 -380 5 -35 0 -29 -38 50 -24 50 -47 103
-50 117 -8 30 -36 43 -73 34 -45 -12 -18 -82 33 -88 32 -3 61 -48 93 -142 21
-63 27 -201 10 -241 -5 -13 -8 13 -7 70 2 73 -2 96 -16 118 -36 56 -108 61
-128 10 -12 -32 -4 -90 16 -117 22 -29 30 -11 15 33 -14 43 -7 76 18 86 24 9
49 -26 57 -80 9 -59 -11 -242 -30 -268 -21 -30 -19 -39 8 -35 30 4 81 109 103
213 29 139 23 282 -19 490 -20 99 -41 221 -48 270 -14 111 -6 318 16 400 30
107 82 185 124 185 19 0 19 -1 -4 -52 -52 -115 -69 -404 -39 -678 22 -207 22
-522 0 -625 -41 -186 -134 -286 -195 -209 -34 44 -25 75 22 78 28 1 33 23 8
31 -44 14 -81 -22 -81 -78 0 -27 36 -87 52 -87 6 0 -1 -13 -16 -28 -34 -37
-44 -93 -23 -126 21 -31 53 -42 74 -24 14 12 13 14 -13 18 -71 13 -46 112 30
118 75 6 125 -85 162 -298 19 -112 16 -221 -17 -495 -33 -284 -13 -581 48
-717 14 -32 23 -61 20 -64 -10 -10 -85 35 -105 63 -31 44 -51 116 -64 224 -14
123 -2 264 43 524 36 210 48 421 29 517 -19 100 -95 247 -116 226 -4 -5 3 -43
14 -87 37 -132 26 -271 -23 -293 -38 -17 -55 -4 -55 42 0 22 7 57 15 76 13 33
13 35 -3 32 -9 -2 -26 -20 -36 -42 -24 -49 -13 -100 26 -129 36 -27 74 -15
102 33 17 28 20 52 20 139 0 104 0 105 12 56 25 -104 9 -227 -45 -334 -27 -52
-35 -61 -59 -61 -36 0 -49 -10 -53 -40 -5 -35 8 -50 42 -50 23 0 32 6 42 28 6
15 24 47 40 72 15 25 35 69 43 98 9 30 18 52 20 49 8 -7 -26 -207 -56 -337
-38 -164 -51 -274 -51 -439 0 -178 15 -257 61 -322 23 -31 134 -91 154 -83 8
3 32 -17 56 -46 23 -28 59 -58 79 -67 l36 -16 -41 -9 c-52 -11 -84 -45 -91
-97 -5 -35 -2 -44 26 -71 35 -36 55 -33 41 6 -41 108 58 166 158 94 23 -17 42
-32 42 -35 0 -3 -19 -42 -41 -88 -52 -103 -103 -235 -120 -309 -6 -32 -16 -58
-21 -58 -17 0 -48 66 -48 103 0 21 9 55 20 77 11 21 16 41 12 44 -17 10 -52
-26 -62 -65 -16 -59 -4 -113 36 -160 37 -45 38 -49 24 -98 -22 -77 -32 -241
-21 -336 16 -133 44 -213 106 -305 l53 -78 -25 -64 c-21 -50 -26 -80 -26 -148
-1 -162 68 -244 189 -225 87 13 162 95 185 203 l11 53 41 -3 42 -3 -2 -40 c-1
-22 -2 -53 -3 -70 -1 -16 -8 -38 -17 -47 -8 -9 -13 -24 -10 -33 4 -8 3 -15 -2
-15 -9 0 -65 -107 -66 -126 0 -6 -6 -18 -13 -26 -7 -9 -10 -22 -7 -30 4 -9 -1
-18 -9 -21 -9 -4 -16 -17 -16 -31 0 -13 -7 -27 -16 -30 -8 -3 -12 -11 -9 -17
4 -6 0 -25 -8 -42 -8 -18 -22 -48 -30 -67 l-15 -35 -19 40 c-14 31 -18 64 -18
143 0 84 -3 102 -15 100 -20 -4 -32 -70 -28 -153 3 -60 8 -79 36 -122 32 -49
32 -53 21 -98 -19 -76 -6 -231 24 -291 35 -69 103 -129 168 -148 29 -9 58 -16
66 -16 7 0 42 -27 78 -59 75 -68 131 -91 229 -94 59 -2 67 1 95 27 26 25 31
37 31 77 0 28 -6 51 -14 58 -20 17 -28 -1 -21 -41 10 -52 -11 -71 -83 -76 -73
-5 -114 7 -192 60 -61 40 -74 58 -42 58 27 0 89 42 116 78 48 65 56 164 20
234 -30 59 -46 15 -22 -63 15 -52 -2 -108 -48 -159 -41 -45 -97 -69 -119 -50
-29 24 -57 138 -59 236 -1 108 3 114 71 114 149 0 289 139 334 330 16 70 16
218 0 295 -7 33 -30 97 -52 142 -21 45 -39 84 -39 87 0 3 25 24 56 47 81 62
108 114 109 211 0 91 -16 116 -84 125 -56 8 -55 -16 2 -42 51 -24 66 -65 47
-134 -12 -47 -76 -123 -129 -154 l-30 -17 -25 35 c-14 19 -37 51 -52 70 -26
36 -54 46 -54 20 0 -8 21 -42 47 -76 46 -58 47 -61 28 -75 -35 -26 -51 -17
-87 53 -19 37 -39 68 -45 70 -22 8 -20 -26 4 -62 14 -21 26 -51 27 -69 1 -29
-2 -31 -34 -34 l-35 -3 -24 86 c-23 85 -35 105 -52 88 -5 -5 -1 -29 10 -58 10
-28 21 -65 24 -82 6 -29 3 -34 -17 -39 -51 -12 -60 -3 -76 76 -17 78 -34 120
-50 120 -13 0 -13 -15 2 -99 7 -39 9 -73 6 -77 -4 -3 -23 -1 -42 6 -34 11 -36
14 -36 56 0 100 -65 150 -142 110 -28 -15 -28 -15 -62 47 -82 147 -117 338
-99 540 11 114 19 133 51 123 17 -6 20 -19 25 -144 6 -150 22 -223 68 -315 75
-147 234 -232 396 -212 72 9 123 53 123 107 0 41 -15 58 -50 58 -32 0 -50 -17
-50 -46 0 -24 31 -41 51 -28 7 4 10 1 7 -7 -10 -31 -71 -54 -138 -53 -180 4
-312 127 -355 329 -8 39 -15 122 -15 186 l0 117 46 38 c62 50 105 141 112 235
4 55 0 84 -22 153 -31 101 -32 117 -6 141 22 20 27 55 8 55 -7 0 -22 -14 -33
-30 -24 -36 -32 -37 -67 -5 -32 28 -34 35 -12 35 28 0 83 40 109 78 27 40 34
116 14 154 -13 25 -72 50 -96 41 -26 -9 -63 -44 -63 -60 0 -22 32 -15 62 14
27 26 28 26 48 8 11 -10 25 -35 31 -56 10 -32 9 -42 -8 -71 -55 -94 -164 -103
-271 -22 -48 37 -55 63 -26 97 30 35 30 66 3 101 -29 37 -46 19 -22 -22 14
-24 15 -36 7 -49 -19 -30 -38 -20 -56 31 -36 95 -42 221 -28 522 15 321 9 628
-14 759 -21 111 -62 203 -109 241 l-35 28 33 39 c63 74 84 139 115 352 20 148
22 268 9 555 -16 333 -17 499 -1 555 6 22 16 59 22 83 12 48 32 54 56 16 16
-24 16 -27 1 -54 -22 -36 -21 -40 2 -40 24 0 51 36 51 67 0 12 -14 38 -31 58
l-32 36 29 30 c44 47 95 69 159 69 97 0 155 -51 155 -137 0 -34 -5 -46 -25
-59 -22 -14 -27 -14 -56 0 -40 20 -49 20 -49 1 0 -27 38 -55 74 -55 56 0 86
44 86 127 0 68 -25 111 -79 136 -25 12 -48 23 -50 24 -5 4 50 63 59 63 3 0 14
-13 23 -30 10 -17 27 -30 38 -30 25 0 24 6 -8 53 l-27 38 23 67 c30 89 36 158
21 234 -14 74 -36 119 -83 172 -38 42 -47 81 -47 190 1 191 95 373 226 436 80
39 191 44 252 11 28 -15 28 -25 -3 -45 -30 -20 -32 -37 -7 -59 46 -41 91 -2
78 67 -8 42 -53 83 -101 92 -71 13 -167 0 -236 -32 -87 -42 -134 -91 -179
-188 -51 -110 -60 -155 -60 -295 0 -111 -1 -120 -20 -126 -63 -20 -75 23 -68
233 5 119 10 150 38 237 34 106 96 245 108 245 5 0 17 -7 28 -15 56 -43 127 1
139 86 6 46 11 52 41 65 18 8 36 14 40 14 12 0 -5 -90 -26 -130 -24 -47 -26
-70 -5 -70 21 0 42 36 73 126 24 71 30 79 55 82 39 5 43 -17 13 -77 -26 -50
-34 -91 -18 -91 17 0 43 38 65 96 19 50 27 59 50 62 42 5 43 -21 1 -88 -26
-42 -34 -64 -27 -71 14 -14 65 41 89 93 19 42 29 46 62 22 l23 -16 -60 -63
c-34 -35 -61 -68 -61 -74 0 -29 44 -5 98 55 54 58 63 64 81 54 31 -16 122
-129 144 -178 22 -52 17 -83 -19 -107 -22 -14 -33 -15 -60 -7 -36 11 -48 4
-38 -22 14 -37 83 -32 133 10 28 23 31 31 31 85 0 55 -3 64 -51 129 -27 38
-69 85 -92 104 l-42 35 23 38 c94 156 128 321 98 474 -23 116 -55 177 -129
245 -74 69 -145 104 -209 104 -26 0 -50 4 -53 10 -3 5 -8 47 -12 92 -5 76 -2
91 26 167 35 97 45 111 76 111 27 0 88 -64 110 -116 19 -45 19 -111 0 -144 -8
-14 -14 -36 -15 -49 l0 -25 29 28 c37 36 53 102 41 168 -16 82 -49 127 -118
162 -18 9 -30 22 -26 27 27 45 211 109 269 95 35 -9 40 -39 14 -86 -18 -32
-20 -43 -11 -52 31 -31 73 55 58 116 -13 51 -90 73 -186 52z m-259 -214 c-39
-76 -53 -149 -50 -249 l4 -95 -68 -31 c-37 -16 -70 -27 -74 -24 -3 4 -6 53 -6
109 0 112 14 170 61 240 28 43 94 88 130 88 l22 0 -19 -38z m135 -403 c104
-45 160 -123 188 -261 33 -158 -6 -409 -76 -501 -12 -17 -16 -17 -51 -2 -30
12 -37 20 -33 35 3 11 8 28 11 38 16 58 23 175 14 247 -14 113 -33 171 -105
327 -35 75 -64 138 -64 141 0 7 83 -10 116 -24z m-131 -79 c18 -52 56 -148 84
-212 69 -158 77 -198 61 -323 -7 -55 -17 -105 -22 -112 -9 -12 -63 -2 -80 15
-5 5 -3 32 3 61 8 39 8 56 0 64 -6 6 -11 39 -11 73 0 44 -5 67 -16 79 -9 8
-14 22 -11 30 3 7 -1 19 -9 25 -8 7 -14 20 -14 30 0 10 -7 23 -15 30 -8 7 -15
19 -15 27 0 7 -7 16 -15 19 -8 4 -15 14 -15 24 0 11 -4 22 -10 25 -5 3 -10 13
-10 20 0 8 -18 42 -40 77 -22 34 -39 66 -37 72 5 15 110 76 126 73 8 -1 28
-42 46 -97z m-228 -430 c18 -11 39 -35 47 -54 21 -50 39 -147 29 -156 -4 -5
-24 -11 -43 -15 -33 -6 -37 -4 -67 39 -31 44 -63 61 -63 33 0 -7 11 -29 25
-49 14 -20 25 -39 25 -42 0 -13 -119 -85 -125 -75 -16 26 -32 160 -24 203 21
112 114 167 196 116z m-38 -327 c-11 -53 -64 -85 -85 -51 -7 10 70 88 87 88 4
0 3 -17 -2 -37z m-185 -835 c8 -13 21 -59 30 -103 18 -86 46 -135 46 -79 0 16
-6 54 -14 84 -8 30 -13 56 -11 58 8 8 35 -46 44 -88 19 -81 12 -300 -9 -300
-19 0 -117 246 -151 378 -11 46 -11 55 1 62 25 16 49 11 64 -12z m81 -4453 c0
-117 -14 -178 -58 -252 -34 -59 -33 -15 3 91 35 103 35 106 15 106 -20 0 -30
-23 -55 -120 -11 -47 -25 -95 -30 -107 -11 -26 -48 -31 -57 -8 -10 28 94 332
138 404 20 33 22 34 33 15 6 -11 11 -64 11 -129z m43 -1095 c22 -34 29 -70 13
-70 -5 0 -33 19 -62 42 l-53 42 29 12 c39 17 45 14 73 -26z m-55 -66 c31 -25
57 -49 57 -52 0 -4 -16 -29 -35 -56 -19 -27 -32 -53 -29 -57 15 -25 57 8 88
69 l17 32 36 -15 c20 -9 39 -18 42 -20 3 -3 -1 -29 -8 -58 -37 -145 -110 -200
-197 -146 -56 34 -79 83 -79 164 1 67 28 185 43 185 4 0 33 -21 65 -46z m595
-93 c22 -54 35 -112 53 -245 15 -105 3 -228 -30 -317 -41 -109 -133 -183 -242
-196 -51 -6 -51 -6 -44 18 4 13 34 76 67 139 74 147 109 275 111 415 1 55 -2
123 -6 152 -8 50 -8 52 20 67 42 23 49 20 71 -33z m-127 -31 c4 -14 7 -70 8
-126 1 -123 -12 -169 -89 -324 -31 -63 -67 -146 -80 -185 -12 -38 -26 -74 -30
-78 -8 -9 -85 21 -127 49 -19 12 -21 18 -12 42 6 15 22 39 36 54 14 14 23 30
20 35 -3 5 3 17 13 26 11 9 17 23 14 32 -4 8 1 17 10 21 9 3 16 16 16 29 0 13
7 25 15 29 8 3 15 12 15 21 0 14 8 34 32 75 20 36 31 66 29 81 -1 9 5 19 13
22 13 5 14 12 6 33 -8 20 -7 32 4 49 11 16 13 38 9 78 -6 61 0 67 62 64 22 -2
31 -8 36 -27z m-218 -754 c15 -5 17 -19 17 -105 0 -84 4 -112 29 -181 28 -79
28 -80 7 -74 -134 39 -196 137 -196 310 0 118 0 118 68 84 31 -16 65 -32 75
-34z"/>
<path d="M9946 11070 c-58 -11 -80 -42 -72 -104 6 -51 20 -76 43 -76 24 0 26
28 3 60 -27 38 -21 77 15 86 58 14 242 -50 269 -95 4 -5 -8 -18 -26 -27 -69
-35 -102 -80 -118 -162 -12 -66 4 -132 41 -168 l29 -28 0 25 c-1 13 -7 35 -15
49 -18 32 -19 101 -1 144 21 50 84 116 111 116 31 0 41 -14 76 -111 29 -77 31
-91 25 -168 -4 -46 -9 -87 -12 -92 -3 -5 -26 -9 -52 -9 -64 0 -135 -35 -209
-104 -74 -68 -106 -129 -129 -245 -30 -154 9 -340 103 -484 l18 -28 -42 -35
c-23 -19 -65 -66 -92 -104 -48 -65 -51 -74 -51 -129 0 -54 3 -62 31 -85 50
-43 119 -47 133 -9 10 25 -6 34 -40 21 -25 -9 -35 -8 -57 7 -37 24 -42 55 -20
107 22 49 113 162 144 178 18 10 27 4 81 -54 54 -60 98 -84 98 -55 0 6 -27 39
-61 74 l-60 63 23 16 c33 24 43 20 62 -22 24 -52 75 -107 89 -93 7 7 -1 29
-27 71 -42 67 -41 93 1 88 23 -3 31 -12 50 -62 22 -58 48 -96 65 -96 16 0 8
41 -18 91 -30 59 -26 82 13 77 24 -3 30 -12 54 -81 32 -90 53 -127 74 -127 21
0 19 23 -5 70 -21 40 -38 130 -26 130 4 0 22 -6 40 -14 30 -12 34 -19 40 -64
11 -85 84 -130 140 -87 11 8 23 15 28 15 12 0 74 -139 108 -245 28 -87 33
-118 38 -237 7 -210 -5 -253 -68 -233 -19 6 -20 15 -20 130 0 97 -4 137 -21
191 -29 95 -72 176 -116 220 -102 103 -318 139 -402 68 -54 -45 -52 -144 2
-144 24 0 57 28 57 48 0 6 -11 19 -25 28 -31 20 -31 30 -2 45 60 33 171 28
251 -11 131 -63 225 -245 226 -436 0 -109 -9 -148 -47 -190 -47 -53 -69 -98
-83 -172 -15 -76 -9 -145 21 -234 l23 -67 -27 -38 c-32 -47 -33 -53 -8 -53 11
0 28 13 38 30 9 17 20 30 23 30 9 0 64 -59 59 -63 -2 -1 -25 -12 -50 -24 -54
-25 -79 -68 -79 -136 0 -83 30 -127 86 -127 36 0 74 28 74 55 0 19 -9 19 -49
-1 -29 -14 -34 -14 -56 0 -51 33 -23 146 44 181 42 21 133 19 179 -4 20 -11
50 -33 67 -50 l29 -32 -27 -25 c-15 -13 -30 -37 -33 -51 -9 -34 14 -77 44 -81
26 -4 27 1 5 38 -15 27 -15 30 1 54 24 38 44 32 56 -16 6 -24 16 -61 22 -83
16 -56 15 -222 -1 -555 -13 -287 -11 -407 9 -555 31 -217 51 -277 114 -351
l34 -40 -35 -28 c-47 -38 -88 -130 -109 -241 -23 -131 -29 -438 -14 -759 14
-301 8 -427 -28 -522 -18 -51 -37 -61 -56 -31 -8 13 -7 24 7 48 18 33 15 52
-7 43 -16 -6 -36 -47 -36 -73 0 -10 9 -30 20 -44 30 -37 25 -61 -19 -96 -109
-86 -218 -79 -274 17 -17 29 -18 39 -8 71 6 21 20 46 31 56 20 18 21 18 48 -8
30 -29 62 -36 62 -14 0 16 -37 51 -63 60 -24 9 -83 -16 -96 -41 -20 -38 -13
-114 14 -154 26 -38 81 -78 109 -78 22 0 20 -7 -11 -35 -36 -32 -44 -31 -68 5
-11 16 -26 30 -32 30 -19 0 -16 -29 7 -57 26 -33 25 -38 -6 -139 -22 -69 -26
-98 -22 -153 7 -94 50 -185 112 -235 l46 -38 0 -117 c0 -64 -7 -147 -15 -186
-43 -202 -175 -325 -355 -329 -67 -1 -128 22 -138 53 -3 8 0 11 7 7 20 -13 51
4 51 28 0 29 -18 46 -50 46 -60 0 -70 -72 -17 -125 82 -82 297 -46 412 70 91
91 133 215 142 417 5 125 8 138 25 144 32 10 40 -9 51 -123 18 -203 -17 -393
-99 -541 l-35 -62 -29 15 c-77 40 -140 -9 -140 -109 0 -40 -3 -45 -31 -55 -18
-6 -36 -11 -42 -11 -9 0 -6 51 9 142 4 25 3 38 -4 38 -18 0 -35 -40 -52 -120
-16 -79 -25 -88 -76 -76 -20 5 -23 10 -17 39 3 17 14 54 24 82 11 29 15 53 10
58 -17 17 -29 -3 -52 -88 l-24 -86 -35 3 c-32 3 -35 5 -34 34 1 18 13 48 27
69 24 36 26 70 4 62 -6 -2 -26 -33 -45 -70 -36 -70 -52 -79 -87 -53 -19 14
-18 17 28 75 26 34 47 68 47 76 0 27 -28 16 -56 -22 -15 -21 -38 -53 -52 -71
l-23 -32 -30 17 c-53 31 -117 107 -129 154 -19 69 -4 110 48 134 56 26 57 50
1 42 -68 -9 -84 -34 -84 -125 1 -97 28 -149 109 -211 31 -23 56 -44 56 -47 0
-3 -18 -42 -39 -87 -22 -45 -45 -109 -52 -142 -16 -77 -16 -225 0 -295 45
-191 185 -330 334 -330 68 0 72 -6 71 -114 -2 -98 -30 -212 -59 -236 -22 -19
-78 5 -119 50 -46 51 -63 107 -48 159 24 78 8 122 -22 63 -36 -70 -28 -169 20
-234 27 -36 89 -78 117 -78 31 0 18 -18 -43 -58 -78 -53 -119 -65 -192 -60
-72 5 -93 24 -83 76 7 40 -1 58 -21 41 -8 -7 -14 -30 -14 -58 0 -40 5 -52 31
-77 28 -26 36 -29 95 -27 98 3 154 26 229 94 36 32 71 59 78 59 8 0 37 7 66
16 65 19 133 79 168 148 30 60 43 215 24 291 -11 45 -11 49 21 98 28 43 33 62
36 122 4 83 -8 149 -28 153 -12 2 -15 -16 -15 -100 0 -79 -4 -112 -18 -143
l-19 -40 -15 35 c-8 19 -22 49 -30 67 -8 17 -12 36 -8 42 3 6 -1 14 -9 17 -9
3 -16 17 -16 30 0 14 -7 27 -16 31 -8 3 -13 12 -9 21 3 8 0 21 -7 30 -7 8 -13
20 -13 26 -1 19 -57 126 -66 126 -5 0 -6 7 -2 15 3 9 -2 24 -10 33 -9 9 -16
31 -17 47 -1 17 -2 48 -3 70 l-2 40 41 3 41 3 16 -67 c30 -119 106 -188 208
-189 71 0 104 21 139 90 35 71 34 193 -3 284 l-26 63 54 79 c63 91 90 171 106
304 11 95 1 259 -21 336 -14 49 -13 53 24 98 40 47 52 101 36 160 -10 39 -45
75 -62 65 -4 -3 1 -23 12 -44 11 -22 20 -56 20 -77 0 -37 -31 -103 -48 -103
-5 0 -15 26 -21 58 -17 74 -68 206 -120 309 -22 46 -41 85 -41 88 0 3 19 18
42 35 100 72 199 14 158 -94 -14 -39 6 -42 41 -6 28 27 31 36 26 71 -7 52 -39
86 -91 97 l-41 9 36 16 c20 9 56 39 79 67 24 29 48 49 56 46 20 -8 131 52 154
83 46 65 61 144 61 323 0 167 -13 274 -51 438 -30 130 -64 330 -56 337 2 3 11
-19 20 -49 8 -29 28 -73 43 -98 16 -25 34 -57 40 -72 10 -21 20 -28 41 -28 37
0 49 14 44 50 -4 26 -9 31 -44 36 -36 6 -42 12 -69 67 -41 81 -62 185 -55 269
11 117 24 122 22 8 -1 -89 2 -110 20 -140 28 -48 65 -60 102 -33 39 29 50 80
26 129 -10 22 -27 40 -36 42 -16 3 -16 1 -3 -32 8 -19 15 -54 15 -76 0 -46
-17 -59 -55 -42 -49 22 -60 161 -23 293 11 44 18 82 14 87 -21 21 -97 -126
-116 -226 -19 -96 -7 -307 29 -517 45 -260 57 -401 43 -524 -13 -108 -33 -180
-64 -224 -20 -28 -95 -73 -105 -63 -3 3 6 32 21 65 60 134 80 435 47 716 -33
274 -36 384 -17 495 37 213 87 304 162 298 76 -6 101 -105 30 -118 -27 -5 -28
-6 -12 -19 13 -11 22 -11 41 -3 53 24 58 107 10 152 -24 23 -24 24 -5 37 11 8
25 31 31 53 20 68 -17 122 -72 105 -25 -8 -20 -30 8 -31 47 -3 56 -34 22 -78
-61 -77 -154 23 -195 209 -22 103 -22 418 0 625 30 274 13 563 -39 678 -23 51
-23 52 -4 52 42 0 94 -78 124 -185 22 -82 30 -289 16 -400 -7 -49 -28 -171
-48 -270 -42 -208 -48 -351 -19 -490 22 -104 73 -209 104 -213 26 -4 28 5 7
35 -19 26 -39 209 -30 268 8 54 33 89 57 80 25 -10 32 -43 18 -86 -15 -44 -7
-62 15 -33 20 27 28 85 16 117 -20 51 -92 46 -128 -10 -14 -22 -18 -45 -16
-118 1 -57 -2 -83 -7 -70 -17 40 -11 178 10 241 32 94 61 139 93 142 52 6 77
75 31 86 -38 10 -63 -2 -71 -32 -3 -14 -26 -67 -50 -117 -38 -79 -43 -85 -38
-50 16 142 31 230 62 380 89 435 31 738 -147 762 -32 5 -44 12 -61 39 -11 19
-41 46 -65 60 l-45 27 29 17 c59 36 76 85 48 139 -19 36 -39 52 -54 42 -11 -6
-10 -15 4 -43 45 -96 -59 -158 -157 -94 -22 15 -42 33 -45 41 -3 7 11 49 32
92 20 43 59 147 86 231 28 83 54 152 58 152 5 0 18 -15 29 -34 29 -47 28 -107
-4 -154 -31 -46 -31 -52 0 -52 28 0 42 21 54 85 12 65 -4 125 -46 174 l-35 41
11 64 c16 90 14 255 -5 343 -20 99 -45 160 -106 261 l-49 82 22 58 c52 135 14
298 -81 347 -37 19 -113 19 -148 1 -67 -35 -114 -108 -127 -199 -6 -38 -12
-48 -30 -53 -13 -3 -33 -1 -44 6 -18 9 -21 20 -21 79 0 46 5 72 14 80 8 6 16
25 19 41 10 51 12 57 26 74 7 8 10 24 7 34 -5 14 -1 21 14 25 12 3 20 13 20
25 0 12 5 24 10 27 6 3 10 12 10 20 0 8 13 33 29 57 16 24 32 61 37 83 4 22
13 48 20 59 12 17 13 16 29 -13 9 -17 18 -60 22 -96 5 -57 3 -68 -21 -109 -32
-55 -33 -68 -4 -64 17 2 29 17 46 58 31 76 26 148 -16 232 -33 64 -33 64 -21
138 14 90 7 207 -17 275 -34 96 -144 175 -244 175 -17 0 -38 13 -61 36 -44 46
-110 79 -184 93 -32 6 -59 10 -59 10 -1 -1 -19 -5 -40 -9z m439 -204 c86 -51
128 -152 128 -304 0 -56 -3 -105 -6 -109 -4 -3 -37 8 -74 24 l-68 31 4 89 c3
97 -13 183 -49 253 l-20 40 21 0 c12 0 41 -11 64 -24z m-149 -535 c-36 -77
-75 -177 -87 -223 -32 -121 -29 -271 7 -390 4 -13 -5 -21 -33 -33 -36 -15 -38
-15 -55 7 -65 86 -103 338 -74 491 28 146 91 229 206 270 42 15 91 25 98 21 2
-1 -26 -65 -62 -143z m193 106 c30 -18 56 -37 58 -43 2 -6 -15 -38 -37 -72
-22 -35 -40 -68 -41 -75 0 -7 -9 -25 -20 -42 -10 -16 -23 -40 -28 -52 -5 -11
-15 -24 -20 -28 -6 -3 -11 -14 -11 -24 0 -10 -6 -24 -14 -31 -8 -6 -12 -18 -9
-25 3 -8 -2 -22 -11 -30 -11 -12 -16 -35 -16 -79 0 -34 -5 -67 -11 -73 -8 -8
-8 -25 0 -64 6 -29 8 -56 3 -61 -17 -17 -71 -27 -80 -15 -5 7 -15 57 -22 112
-16 126 -9 160 68 342 33 76 69 170 82 208 12 39 25 73 27 78 8 13 27 7 82
-26z m231 -492 c39 -20 69 -66 78 -117 8 -45 -2 -152 -18 -194 l-10 -25 -60
41 c-33 22 -60 43 -60 46 0 3 11 22 25 42 14 20 25 42 25 49 0 28 -32 11 -63
-33 -30 -43 -34 -45 -67 -39 -19 4 -39 10 -43 15 -10 9 8 108 28 157 26 62
104 89 165 58z m-31 -333 c44 -38 49 -62 12 -62 -29 0 -52 24 -60 63 -5 20 -6
37 -2 37 3 0 26 -17 50 -38z m195 -818 c9 -3 16 -14 16 -23 0 -56 -139 -421
-160 -421 -21 0 -28 219 -9 300 9 42 36 96 44 88 2 -2 -3 -28 -11 -58 -8 -30
-14 -68 -14 -84 0 -56 28 -7 46 79 22 112 41 137 88 119z m-69 -4408 c45 -96
119 -331 112 -350 -9 -24 -46 -19 -57 7 -5 12 -19 60 -30 107 -25 97 -35 120
-55 120 -20 0 -20 -3 15 -106 36 -106 37 -150 3 -91 -43 71 -58 136 -58 242 0
109 9 160 27 149 6 -4 25 -39 43 -78z m-26 -1136 c10 -5 0 -18 -39 -49 -28
-22 -56 -41 -61 -41 -21 0 -4 55 29 93 15 17 36 16 71 -3z m58 -97 c9 -32 17
-89 18 -128 0 -81 -23 -130 -79 -164 -87 -54 -160 1 -197 147 -14 58 -11 63
39 80 30 10 33 9 48 -21 31 -60 73 -93 88 -68 3 4 -10 30 -29 57 -19 27 -35
52 -35 56 0 8 112 98 122 98 4 0 15 -26 25 -57z m-615 -49 c28 -14 30 -19 24
-52 -34 -198 3 -400 113 -605 27 -50 52 -103 56 -116 7 -24 7 -24 -44 -18
-109 13 -201 87 -242 196 -45 121 -48 254 -8 459 13 64 48 152 61 152 5 0 23
-7 40 -16z m137 -41 c22 -6 23 -9 18 -61 -4 -39 -2 -61 9 -77 11 -17 12 -29 4
-49 -8 -21 -7 -28 6 -33 8 -3 14 -13 13 -22 -2 -15 9 -45 29 -81 24 -41 32
-61 32 -75 0 -9 7 -18 15 -21 8 -4 15 -16 15 -29 0 -13 7 -26 16 -29 9 -4 14
-13 10 -21 -3 -9 3 -23 14 -32 10 -9 16 -21 13 -26 -3 -5 6 -21 20 -35 14 -15
30 -39 36 -54 9 -24 7 -30 -12 -42 -42 -28 -119 -58 -127 -49 -4 4 -18 40 -30
78 -13 39 -49 122 -81 186 -80 162 -92 207 -87 343 2 61 7 117 11 124 9 13 38
15 76 5z m280 -829 c2 -169 -62 -269 -195 -308 -21 -6 -21 -5 7 74 25 69 29
97 29 181 0 86 2 100 18 105 9 2 42 17 72 33 67 34 68 32 69 -85z"/>
<path d="M189 6774 c-169 -51 -244 -344 -143 -563 30 -68 87 -128 131 -140 39
-11 97 1 132 27 69 51 61 139 -16 158 -51 13 -105 -62 -72 -102 17 -20 39 -17
39 5 0 32 11 51 30 51 44 0 37 -56 -11 -84 -83 -49 -154 -11 -190 104 -42 134
-33 314 22 427 45 93 145 128 195 70 27 -32 31 -78 9 -97 -25 -21 -47 -4 -43
32 2 27 0 33 -17 33 -30 0 -52 -47 -37 -79 27 -60 115 -51 142 14 11 27 11 39
-1 73 -24 70 -87 96 -170 71z"/>
<path d="M11450 6780 c-96 -22 -119 -163 -32 -199 61 -26 122 33 91 87 -8 15
-24 27 -34 27 -17 0 -19 -6 -17 -33 4 -36 -18 -53 -43 -32 -22 19 -18 65 9 97
50 58 150 23 195 -70 88 -181 49 -504 -66 -548 -32 -12 -91 3 -122 32 -26 24
-25 62 3 67 22 5 36 -13 36 -45 0 -26 22 -30 39 -9 33 40 -21 115 -72 102
-106 -26 -72 -159 47 -186 52 -11 95 3 138 47 140 144 143 467 6 603 -50 51
-118 73 -178 60z"/>
<path d="M1207 1857 c-54 -13 -71 -50 -65 -141 6 -82 32 -145 87 -208 28 -32
41 -58 49 -103 37 -183 198 -264 451 -224 67 10 70 9 127 -21 82 -42 144 -48
227 -21 64 22 88 44 67 65 -8 8 -25 3 -59 -17 -29 -16 -64 -27 -86 -27 -49 0
-122 19 -136 36 -9 11 -4 17 24 29 20 8 45 15 55 15 11 0 38 14 60 30 23 17
48 30 56 30 8 0 18 5 21 10 3 6 15 10 27 10 11 0 22 8 25 20 4 15 11 18 27 14
14 -3 27 1 35 10 7 8 32 18 56 22 25 3 50 12 56 20 8 9 33 14 79 14 75 0 94
-12 88 -56 -3 -24 -10 -28 -78 -45 -84 -22 -133 -55 -167 -115 -72 -126 37
-259 211 -258 48 1 89 8 129 23 l57 23 78 -46 c108 -63 178 -92 265 -110 90
-19 250 -21 349 -4 63 10 71 9 80 -5 5 -9 28 -28 52 -42 53 -31 142 -34 195
-7 38 19 45 30 32 51 -7 11 -16 8 -47 -13 -55 -37 -122 -36 -166 3 l-32 28
155 50 c85 28 192 67 238 89 l84 38 33 -38 c57 -66 54 -141 -8 -175 -27 -16
-30 -15 -100 14 -29 12 -22 -30 7 -49 61 -40 116 -28 154 35 l18 30 29 -46
c16 -25 43 -54 60 -64 24 -14 33 -28 37 -58 10 -59 45 -104 107 -135 142 -71
360 -76 660 -14 141 29 374 67 408 66 12 -1 -172 -86 -200 -93 -31 -8 -40 -27
-31 -67 6 -33 18 -36 58 -18 18 8 25 19 25 39 0 23 9 33 43 54 78 45 153 65
241 64 45 -1 92 -5 106 -9 16 -5 -11 -7 -71 -7 -76 2 -101 -2 -123 -16 -55
-37 -60 -108 -8 -128 31 -12 87 -4 120 18 35 22 20 27 -38 12 -48 -12 -52 -12
-73 10 l-22 22 23 19 c13 10 42 22 66 25 62 10 243 -10 272 -30 33 -22 46 -16
31 14 -24 49 -144 92 -312 112 -110 14 -177 8 -366 -30 -360 -73 -541 -80
-723 -27 -87 26 -156 82 -156 127 0 5 17 1 38 -10 107 -54 408 -75 687 -46
228 23 524 24 628 1 98 -21 154 -46 201 -87 30 -26 36 -38 34 -62 -7 -65 -98
-90 -98 -26 0 37 -25 39 -35 2 -5 -22 -1 -32 20 -50 41 -36 89 -29 143 20 12
11 22 15 22 9 0 -18 61 -52 91 -52 40 0 81 37 77 69 -4 31 -21 31 -28 -1 -8
-33 -52 -46 -84 -25 -34 23 -43 61 -23 103 27 55 129 96 317 125 89 14 213 8
465 -22 284 -33 578 -14 718 48 31 14 60 23 63 21 11 -11 -24 -75 -55 -101
-41 -34 -111 -55 -233 -69 -120 -13 -253 -2 -550 47 -226 37 -396 46 -500 24
-69 -14 -195 -74 -208 -99 -14 -26 -6 -26 89 1 58 16 94 20 157 17 98 -5 137
-25 132 -66 -3 -24 -8 -27 -45 -30 -25 -2 -55 4 -73 13 -37 19 -46 15 -31 -13
14 -26 73 -45 111 -37 66 14 91 82 47 123 -30 28 -115 44 -197 37 -52 -4 -60
-3 -40 5 79 34 241 17 350 -38 47 -24 56 -33 66 -67 8 -29 17 -41 35 -46 37
-9 49 0 49 37 0 30 -5 36 -49 59 -27 13 -52 29 -55 33 -3 5 -37 20 -76 32 -39
13 -69 25 -66 27 7 8 223 -27 321 -52 171 -44 302 -58 490 -53 184 5 258 22
302 71 29 31 75 126 69 142 -2 7 18 32 46 56 28 23 57 58 66 78 l15 36 9 -41
c11 -52 45 -84 97 -91 35 -5 44 -2 71 26 36 35 33 55 -6 41 -108 -41 -166 58
-93 159 17 24 36 40 42 37 7 -2 71 -31 142 -64 72 -33 169 -70 217 -83 49 -13
88 -27 88 -32 0 -16 -67 -47 -103 -47 -21 0 -56 9 -77 20 -40 20 -40 20 -40 0
0 -53 142 -76 198 -32 67 54 70 55 115 44 23 -6 90 -16 149 -22 198 -21 364
14 498 105 l79 54 63 -26 c90 -37 212 -38 283 -3 69 35 90 68 90 139 -1 47 -6
67 -28 100 -39 59 -96 96 -167 110 l-61 12 3 42 3 42 70 -3 c45 -2 76 -9 87
-19 10 -8 24 -13 32 -10 8 3 20 -1 27 -9 11 -13 91 -54 115 -58 7 -1 19 -7 27
-14 8 -7 21 -10 29 -7 9 4 18 -1 21 -9 4 -9 17 -16 31 -16 13 0 27 -7 30 -16
3 -8 11 -12 17 -9 6 4 25 0 42 -8 18 -8 48 -22 67 -30 l35 -15 -40 -19 c-31
-14 -63 -18 -143 -18 -86 1 -102 -1 -100 -14 4 -21 69 -33 153 -29 60 3 79 8
122 36 49 32 53 32 98 21 70 -18 219 -7 280 20 90 40 155 119 170 209 5 34 20
58 65 108 67 74 90 131 93 228 2 59 -1 67 -27 95 -25 26 -37 31 -77 31 -27 0
-51 -6 -58 -13 -16 -20 -3 -27 39 -21 58 9 80 -18 80 -98 0 -69 -18 -118 -70
-193 -33 -48 -50 -57 -50 -27 0 10 -13 39 -29 64 -38 60 -103 93 -186 92 -59
0 -125 -23 -125 -44 0 -13 44 -13 91 2 52 15 108 -2 159 -48 45 -41 69 -97 50
-119 -28 -34 -221 -72 -300 -59 l-37 6 -11 75 c-33 212 -208 335 -477 337
-121 0 -184 -14 -292 -65 -45 -21 -84 -39 -86 -39 -3 0 -23 25 -46 55 -22 30
-62 67 -88 82 -40 23 -58 27 -125 28 -92 0 -120 -18 -122 -81 -1 -49 19 -55
34 -10 21 66 85 84 165 47 39 -18 112 -88 134 -129 10 -20 5 -26 -59 -73 -66
-48 -88 -79 -55 -79 8 0 42 21 76 47 58 46 61 47 75 28 26 -36 17 -52 -50 -85
-36 -18 -67 -39 -70 -46 -8 -21 32 -17 65 7 16 11 45 23 64 26 l35 6 0 -39 0
-39 -85 -24 c-85 -23 -105 -35 -88 -52 5 -5 29 -1 58 10 28 11 66 21 85 23 35
3 35 3 35 -37 l0 -40 -75 -15 c-80 -17 -120 -34 -120 -52 0 -7 13 -8 38 -4 20
3 61 9 90 12 57 7 63 0 40 -51 -10 -21 -18 -25 -57 -25 -88 0 -139 -56 -112
-124 7 -17 13 -35 14 -40 4 -16 -165 -96 -248 -117 -64 -17 -111 -22 -235 -22
-85 0 -172 3 -192 7 -33 6 -38 10 -38 35 l0 28 138 6 c194 8 309 45 409 132
89 76 144 251 114 362 -14 52 -60 93 -105 93 -39 0 -56 -15 -56 -50 0 -32 17
-50 46 -50 24 0 41 31 28 51 -4 7 -1 10 7 7 31 -10 54 -71 53 -138 -3 -178
-127 -312 -329 -355 -38 -8 -121 -15 -184 -15 l-113 0 -57 59 c-48 50 -67 62
-125 80 -89 28 -158 27 -253 -4 -95 -30 -103 -30 -136 -5 -27 21 -57 27 -57
10 0 -5 14 -19 30 -32 36 -26 37 -32 6 -69 l-24 -29 -23 46 c-32 67 -88 104
-156 104 -44 0 -58 -5 -79 -25 -35 -35 -31 -99 9 -128 19 -15 30 -18 38 -10 7
7 1 21 -22 47 -30 35 -31 37 -14 56 23 25 79 43 107 35 13 -4 34 -17 46 -29
74 -66 68 -168 -13 -265 -31 -36 -57 -39 -92 -11 -33 26 -64 25 -97 -1 -36
-28 -19 -50 18 -25 34 21 63 20 76 -3 9 -17 4 -22 -46 -41 -102 -38 -223 -45
-530 -30 -321 15 -628 9 -759 -14 -111 -21 -203 -62 -241 -109 l-28 -35 -44
38 c-60 53 -133 79 -287 101 -201 29 -317 32 -620 18 -364 -18 -493 -17 -575
5 -90 25 -103 32 -90 56 15 28 47 34 77 15 38 -25 53 -4 20 29 -35 35 -71 33
-109 -4 -16 -17 -33 -30 -38 -30 -14 0 -72 72 -86 106 -18 43 -18 116 0 159
29 68 139 101 181 54 19 -21 19 -21 -10 -91 -10 -24 26 -24 47 0 62 70 6 142
-110 142 -74 0 -123 -39 -156 -125 -2 -5 -18 4 -36 21 l-32 32 31 23 c17 12
31 31 31 41 0 23 -3 23 -51 -9 l-40 -26 -67 24 c-51 18 -87 24 -152 24 -108 0
-176 -23 -240 -80 -44 -39 -56 -44 -115 -50 -235 -26 -440 63 -527 227 -31 58
-33 208 -5 252 l19 28 19 -31 c21 -35 39 -39 62 -13 54 59 -25 108 -99 63 -46
-28 -68 -93 -62 -178 14 -176 106 -286 295 -355 44 -16 93 -22 203 -27 l145
-6 0 -34 c0 -31 -4 -36 -35 -44 -61 -16 -316 -2 -398 22 -99 29 -248 90 -263
107 -9 11 -8 23 4 52 13 32 13 42 2 69 -16 38 -39 51 -100 60 -47 6 -65 26
-65 70 0 21 64 13 124 -17 27 -14 51 -20 63 -16 16 7 16 10 -9 31 -15 13 -63
36 -108 52 -80 28 -97 44 -84 77 9 22 27 20 82 -9 52 -28 82 -32 82 -11 0 18
-36 41 -99 62 -59 19 -65 26 -57 60 8 32 20 31 89 -12 45 -28 61 -34 70 -24
14 14 -36 61 -95 88 -42 19 -46 30 -20 62 l18 22 64 -61 c34 -33 66 -61 70
-61 4 0 11 7 14 16 5 12 -14 36 -65 84 l-72 66 53 52 c67 66 133 110 178 118
31 6 39 3 59 -20 25 -29 29 -56 13 -86 -13 -24 3 -35 30 -20 33 18 27 81 -11
125 -29 33 -34 35 -94 35 -35 0 -65 -4 -67 -8 -1 -5 -25 -23 -53 -42 -27 -18
-71 -55 -96 -82 l-46 -49 -74 40 c-150 80 -295 106 -437 77 -119 -24 -167 -48
-237 -120 -74 -75 -108 -140 -113 -218 l-4 -56 -85 -7 c-76 -7 -93 -5 -164 19
-134 44 -153 67 -103 126 57 67 173 100 234 65 14 -8 35 -14 48 -15 20 0 21 3
12 20 -6 11 -23 26 -38 34 -103 52 -251 6 -302 -95 -25 -47 -33 -44 -73 28
-30 56 -60 178 -52 210 8 34 50 40 85 14 38 -28 62 -28 58 0 -2 12 -10 25 -18
29 -8 4 -24 11 -35 17 -13 6 -34 6 -58 0z m1158 -133 c76 -19 164 -58 171 -78
9 -23 -25 -79 -43 -72 -9 4 -56 13 -106 22 -151 26 -295 -1 -487 -93 -52 -25
-110 -52 -129 -60 l-34 -14 7 42 c30 190 188 285 451 273 61 -3 137 -12 170
-20z m7246 -48 c37 -8 90 -24 118 -37 93 -40 171 -152 171 -246 0 -31 -2 -34
-22 -28 -13 4 -64 29 -115 56 -209 111 -406 148 -605 113 -35 -6 -37 -5 -52
31 -9 21 -15 39 -13 41 12 12 107 45 154 53 32 6 81 14 108 19 77 14 183 13
256 -2z m-7221 -116 c115 -18 112 -17 105 -53 -11 -52 -24 -60 -80 -46 -36 9
-52 9 -66 1 -10 -7 -45 -12 -78 -12 -40 0 -62 -5 -71 -15 -7 -9 -21 -13 -31
-10 -12 4 -21 1 -25 -9 -3 -9 -16 -16 -29 -16 -12 0 -28 -7 -35 -15 -7 -8 -18
-15 -25 -15 -7 0 -15 -7 -19 -15 -3 -8 -14 -15 -25 -15 -11 0 -23 -4 -26 -10
-3 -5 -13 -10 -20 -10 -8 0 -42 -18 -75 -39 -34 -22 -67 -38 -73 -35 -19 7
-81 125 -71 134 5 4 47 20 94 35 47 15 140 52 207 81 172 76 214 84 343 64z
m7060 -66 c30 -9 106 -42 170 -74 63 -31 147 -67 185 -80 39 -12 74 -26 79
-31 5 -4 -5 -37 -22 -73 -27 -57 -35 -66 -57 -66 -16 0 -39 12 -57 31 -17 16
-36 28 -43 25 -7 -2 -19 4 -28 15 -9 10 -23 16 -30 13 -8 -3 -17 2 -20 10 -4
9 -17 16 -31 16 -13 0 -26 7 -30 15 -3 8 -14 15 -24 15 -11 0 -25 6 -32 14 -6
8 -18 12 -26 9 -7 -3 -17 2 -20 11 -3 9 -14 16 -24 16 -11 0 -21 4 -25 10 -3
5 -12 7 -19 4 -7 -3 -18 2 -25 10 -9 11 -19 13 -38 5 -18 -7 -30 -5 -45 6 -16
10 -37 13 -79 8 l-58 -6 -6 37 c-13 69 -6 73 151 75 67 1 118 -4 154 -15z
m-8001 -114 c62 -19 89 -22 165 -17 l92 5 32 -71 c17 -39 30 -72 27 -75 -2 -2
-53 -5 -112 -5 -89 -1 -118 3 -166 22 -89 35 -147 92 -162 159 l-7 34 29 -15
c15 -8 61 -25 102 -37z m8825 -74 c-20 -58 -71 -111 -133 -139 -49 -22 -183
-35 -244 -23 l-34 6 36 75 36 74 100 1 c82 1 113 6 175 29 41 15 76 26 77 26
2 -1 -4 -23 -13 -49z m-7779 -80 c10 -42 12 -38 -61 -92 -23 -17 -26 -25 -17
-35 10 -10 20 -7 52 14 22 15 44 27 48 27 9 0 87 -119 82 -124 -11 -10 -117
-26 -170 -26 -127 0 -206 87 -166 183 17 40 55 64 132 83 75 19 88 15 100 -30z
m6777 -48 c91 -39 120 -104 77 -174 -45 -74 -132 -98 -254 -69 -41 10 -79 23
-85 29 -10 12 73 126 91 126 6 0 31 -16 56 -35 33 -25 50 -32 57 -25 19 19 0
39 -87 95 -14 9 -14 14 0 49 16 37 17 38 56 32 22 -4 62 -16 89 -28z m-6634
-44 c25 -17 31 -74 8 -74 -13 0 -76 70 -76 84 0 12 46 6 68 -10z m6391 -69
c-18 -25 -40 -52 -50 -60 -15 -15 -17 -14 -26 12 -6 15 -8 34 -5 41 6 20 63
52 90 52 23 0 23 -1 -9 -45z m-5200 -1 c17 -4 31 -10 31 -14 0 -25 -416 -179
-434 -159 -12 14 -14 47 -3 62 7 10 41 24 77 32 103 23 140 35 140 45 0 14
-47 12 -110 -5 -30 -8 -56 -13 -58 -10 -6 5 37 27 83 41 42 13 221 18 274 8z
m4235 -42 c71 -26 116 -54 97 -60 -7 -2 -58 10 -112 28 -55 18 -103 29 -106
26 -17 -17 36 -47 120 -66 109 -26 127 -34 127 -61 0 -34 -27 -33 -148 6 -173
55 -313 117 -298 132 29 29 234 25 320 -5z"/>
<path d="M5493 356 c-89 -40 -82 -182 13 -265 111 -98 331 -118 492 -46 73 33
138 98 147 147 13 69 -53 168 -112 168 -29 0 -83 -50 -83 -78 0 -32 38 -72 69
-72 55 0 68 41 19 55 -45 14 -47 50 -3 50 25 0 33 -7 53 -45 29 -59 28 -83 -9
-125 -39 -44 -130 -74 -249 -82 -166 -10 -314 43 -358 129 -22 43 -22 48 -9
81 17 38 42 57 79 57 29 0 48 -17 48 -43 0 -17 -5 -19 -36 -14 -45 8 -59 -17
-25 -45 32 -25 57 -23 88 8 45 45 13 120 -58 129 -19 3 -48 -1 -66 -9z"/>
</g>
</svg>
